<mxfile host="app.diagrams.net" modified="2020-09-05T07:40:53.932Z" agent="5.0 (Macintosh; Intel Mac OS X 10_14_6) AppleWebKit/537.36 (KHTML, like Gecko) Chrome/85.0.4183.83 Safari/537.36" etag="CVisHPesHwSEkMnF9dSm" version="13.5.8" type="github">
  <diagram id="T-G9CXPKY3tpDLnikrIW" name="Page-1">
    <mxGraphModel dx="911" dy="474" grid="1" gridSize="10" guides="1" tooltips="1" connect="1" arrows="1" fold="1" page="1" pageScale="1" pageWidth="827" pageHeight="1169" math="0" shadow="0">
      <root>
        <mxCell id="0" />
        <mxCell id="1" parent="0" />
        <mxCell id="OooZ02oLBbBNjy36J86k-1" value="" style="rounded=0;whiteSpace=wrap;html=1;" vertex="1" parent="1">
          <mxGeometry x="140" y="100" width="150" height="230" as="geometry" />
        </mxCell>
        <mxCell id="OooZ02oLBbBNjy36J86k-2" value="" style="endArrow=none;html=1;" edge="1" parent="1">
          <mxGeometry width="50" height="50" relative="1" as="geometry">
            <mxPoint x="230" y="160" as="sourcePoint" />
            <mxPoint x="290" y="140" as="targetPoint" />
          </mxGeometry>
        </mxCell>
        <mxCell id="OooZ02oLBbBNjy36J86k-3" value="" style="endArrow=none;html=1;" edge="1" parent="1">
          <mxGeometry width="50" height="50" relative="1" as="geometry">
            <mxPoint x="230" y="200" as="sourcePoint" />
            <mxPoint x="290" y="180" as="targetPoint" />
          </mxGeometry>
        </mxCell>
        <mxCell id="OooZ02oLBbBNjy36J86k-4" value="" style="endArrow=none;html=1;" edge="1" parent="1">
          <mxGeometry width="50" height="50" relative="1" as="geometry">
            <mxPoint x="230" y="240" as="sourcePoint" />
            <mxPoint x="290" y="220" as="targetPoint" />
          </mxGeometry>
        </mxCell>
        <mxCell id="OooZ02oLBbBNjy36J86k-5" value="" style="endArrow=none;html=1;" edge="1" parent="1">
          <mxGeometry width="50" height="50" relative="1" as="geometry">
            <mxPoint x="230" y="280" as="sourcePoint" />
            <mxPoint x="290" y="260" as="targetPoint" />
          </mxGeometry>
        </mxCell>
        <mxCell id="OooZ02oLBbBNjy36J86k-6" value="" style="endArrow=none;html=1;" edge="1" parent="1">
          <mxGeometry width="50" height="50" relative="1" as="geometry">
            <mxPoint x="230" y="120" as="sourcePoint" />
            <mxPoint x="290" y="100" as="targetPoint" />
          </mxGeometry>
        </mxCell>
        <mxCell id="OooZ02oLBbBNjy36J86k-7" value="" style="rounded=1;whiteSpace=wrap;html=1;rotation=-15;fillColor=#1A1A1A;" vertex="1" parent="1">
          <mxGeometry x="219.86" y="120" width="61.75" height="22.01" as="geometry" />
        </mxCell>
        <mxCell id="OooZ02oLBbBNjy36J86k-8" value="" style="rounded=1;whiteSpace=wrap;html=1;rotation=-15;fillColor=#1A1A1A;" vertex="1" parent="1">
          <mxGeometry x="219.86" y="240" width="61.75" height="22.01" as="geometry" />
        </mxCell>
        <mxCell id="OooZ02oLBbBNjy36J86k-9" value="&lt;font style=&quot;font-size: 16px&quot;&gt;Parking Lot&lt;/font&gt;" style="text;html=1;strokeColor=none;fillColor=none;align=center;verticalAlign=middle;whiteSpace=wrap;rounded=0;" vertex="1" parent="1">
          <mxGeometry x="160" y="290" width="90" height="30" as="geometry" />
        </mxCell>
        <mxCell id="OooZ02oLBbBNjy36J86k-10" value="" style="endArrow=none;html=1;" edge="1" parent="1">
          <mxGeometry width="50" height="50" relative="1" as="geometry">
            <mxPoint x="290" y="120" as="sourcePoint" />
            <mxPoint x="340" y="120" as="targetPoint" />
          </mxGeometry>
        </mxCell>
        <mxCell id="OooZ02oLBbBNjy36J86k-11" value="" style="endArrow=none;html=1;" edge="1" parent="1">
          <mxGeometry width="50" height="50" relative="1" as="geometry">
            <mxPoint x="290" y="160" as="sourcePoint" />
            <mxPoint x="340" y="160" as="targetPoint" />
          </mxGeometry>
        </mxCell>
        <mxCell id="OooZ02oLBbBNjy36J86k-12" value="" style="endArrow=none;html=1;" edge="1" parent="1">
          <mxGeometry width="50" height="50" relative="1" as="geometry">
            <mxPoint x="290" y="200" as="sourcePoint" />
            <mxPoint x="340" y="200" as="targetPoint" />
          </mxGeometry>
        </mxCell>
        <mxCell id="OooZ02oLBbBNjy36J86k-13" value="" style="endArrow=none;html=1;" edge="1" parent="1">
          <mxGeometry width="50" height="50" relative="1" as="geometry">
            <mxPoint x="290" y="240" as="sourcePoint" />
            <mxPoint x="340" y="240" as="targetPoint" />
          </mxGeometry>
        </mxCell>
        <mxCell id="OooZ02oLBbBNjy36J86k-15" value="1&lt;span style=&quot;color: rgba(0 , 0 , 0 , 0) ; font-family: monospace ; font-size: 0px&quot;&gt;%3CmxGraphModel%3E%3Croot%3E%3CmxCell%20id%3D%220%22%2F%3E%3CmxCell%20id%3D%221%22%20parent%3D%220%22%2F%3E%3CmxCell%20id%3D%222%22%20value%3D%22%22%20style%3D%22endArrow%3Dnone%3Bhtml%3D1%3B%22%20edge%3D%221%22%20parent%3D%221%22%3E%3CmxGeometry%20width%3D%2250%22%20height%3D%2250%22%20relative%3D%221%22%20as%3D%22geometry%22%3E%3CmxPoint%20x%3D%22290%22%20y%3D%22120%22%20as%3D%22sourcePoint%22%2F%3E%3CmxPoint%20x%3D%22340%22%20y%3D%22120%22%20as%3D%22targetPoint%22%2F%3E%3C%2FmxGeometry%3E%3C%2FmxCell%3E%3C%2Froot%3E%3C%2FmxGraphModel%3E&lt;/span&gt;" style="text;html=1;strokeColor=none;fillColor=none;align=center;verticalAlign=middle;whiteSpace=wrap;rounded=0;" vertex="1" parent="1">
          <mxGeometry x="300" y="100" width="40" height="20" as="geometry" />
        </mxCell>
        <mxCell id="OooZ02oLBbBNjy36J86k-16" value="1&lt;span style=&quot;color: rgba(0 , 0 , 0 , 0) ; font-family: monospace ; font-size: 0px&quot;&gt;%3CmxGraphModel%3E%3Croot%3E%3CmxCell%20id%3D%220%22%2F%3E%3CmxCell%20id%3D%221%22%20parent%3D%220%22%2F%3E%3CmxCell%20id%3D%222%22%20value%3D%22%22%20style%3D%22endArrow%3Dnone%3Bhtml%3D1%3B%22%20edge%3D%221%22%20parent%3D%221%22%3E%3CmxGeometry%20width%3D%2250%22%20height%3D%2250%22%20relative%3D%221%22%20as%3D%22geometry%22%3E%3CmxPoint%20x%3D%22290%22%20y%3D%22120%22%20as%3D%22sourcePoint%22%2F%3E%3CmxPoint%20x%3D%22340%22%20y%3D%22120%22%20as%3D%22targetPoint%22%2F%3E%3C%2FmxGeometry%3E%3C%2FmxCell%3E%3C%2Froot%3E%3C%2FmxGraphModel%3E&lt;/span&gt;" style="text;html=1;strokeColor=none;fillColor=none;align=center;verticalAlign=middle;whiteSpace=wrap;rounded=0;" vertex="1" parent="1">
          <mxGeometry x="300" y="220" width="40" height="20" as="geometry" />
        </mxCell>
        <mxCell id="OooZ02oLBbBNjy36J86k-17" value="0" style="text;html=1;strokeColor=none;fillColor=none;align=center;verticalAlign=middle;whiteSpace=wrap;rounded=0;" vertex="1" parent="1">
          <mxGeometry x="300" y="140" width="40" height="20" as="geometry" />
        </mxCell>
        <mxCell id="OooZ02oLBbBNjy36J86k-18" value="0" style="text;html=1;strokeColor=none;fillColor=none;align=center;verticalAlign=middle;whiteSpace=wrap;rounded=0;" vertex="1" parent="1">
          <mxGeometry x="300" y="180" width="40" height="20" as="geometry" />
        </mxCell>
        <mxCell id="OooZ02oLBbBNjy36J86k-19" value="" style="rounded=0;whiteSpace=wrap;html=1;" vertex="1" parent="1">
          <mxGeometry x="450" y="100" width="540" height="220" as="geometry" />
        </mxCell>
        <mxCell id="OooZ02oLBbBNjy36J86k-21" value="" style="endArrow=classic;html=1;" edge="1" parent="1">
          <mxGeometry width="50" height="50" relative="1" as="geometry">
            <mxPoint x="400" y="120" as="sourcePoint" />
            <mxPoint x="450" y="120" as="targetPoint" />
          </mxGeometry>
        </mxCell>
        <mxCell id="OooZ02oLBbBNjy36J86k-22" value="" style="endArrow=classic;html=1;" edge="1" parent="1">
          <mxGeometry width="50" height="50" relative="1" as="geometry">
            <mxPoint x="400" y="160" as="sourcePoint" />
            <mxPoint x="450" y="160" as="targetPoint" />
          </mxGeometry>
        </mxCell>
        <mxCell id="OooZ02oLBbBNjy36J86k-23" value="" style="endArrow=classic;html=1;" edge="1" parent="1">
          <mxGeometry width="50" height="50" relative="1" as="geometry">
            <mxPoint x="400" y="200" as="sourcePoint" />
            <mxPoint x="450" y="200" as="targetPoint" />
          </mxGeometry>
        </mxCell>
        <mxCell id="OooZ02oLBbBNjy36J86k-24" value="" style="endArrow=classic;html=1;" edge="1" parent="1">
          <mxGeometry width="50" height="50" relative="1" as="geometry">
            <mxPoint x="400" y="240" as="sourcePoint" />
            <mxPoint x="450" y="240" as="targetPoint" />
          </mxGeometry>
        </mxCell>
        <mxCell id="OooZ02oLBbBNjy36J86k-25" value="" style="endArrow=classic;html=1;" edge="1" parent="1">
          <mxGeometry width="50" height="50" relative="1" as="geometry">
            <mxPoint x="400" y="280" as="sourcePoint" />
            <mxPoint x="450" y="280" as="targetPoint" />
          </mxGeometry>
        </mxCell>
        <mxCell id="OooZ02oLBbBNjy36J86k-27" value="" style="triangle;whiteSpace=wrap;html=1;strokeColor=#000000;fillColor=#ffffff;" vertex="1" parent="1">
          <mxGeometry x="450" y="260" width="50" height="50" as="geometry" />
        </mxCell>
        <mxCell id="OooZ02oLBbBNjy36J86k-28" value="p0" style="text;html=1;strokeColor=none;fillColor=none;align=center;verticalAlign=middle;whiteSpace=wrap;rounded=0;" vertex="1" parent="1">
          <mxGeometry x="360" y="110" width="40" height="20" as="geometry" />
        </mxCell>
        <mxCell id="OooZ02oLBbBNjy36J86k-29" value="p1" style="text;html=1;strokeColor=none;fillColor=none;align=center;verticalAlign=middle;whiteSpace=wrap;rounded=0;" vertex="1" parent="1">
          <mxGeometry x="360" y="150" width="40" height="20" as="geometry" />
        </mxCell>
        <mxCell id="OooZ02oLBbBNjy36J86k-30" value="p2" style="text;html=1;strokeColor=none;fillColor=none;align=center;verticalAlign=middle;whiteSpace=wrap;rounded=0;" vertex="1" parent="1">
          <mxGeometry x="360" y="190" width="40" height="20" as="geometry" />
        </mxCell>
        <mxCell id="OooZ02oLBbBNjy36J86k-31" value="p3" style="text;html=1;strokeColor=none;fillColor=none;align=center;verticalAlign=middle;whiteSpace=wrap;rounded=0;" vertex="1" parent="1">
          <mxGeometry x="360" y="230" width="40" height="20" as="geometry" />
        </mxCell>
        <mxCell id="OooZ02oLBbBNjy36J86k-32" value="C" style="text;html=1;strokeColor=none;fillColor=none;align=center;verticalAlign=middle;whiteSpace=wrap;rounded=0;" vertex="1" parent="1">
          <mxGeometry x="360" y="270" width="40" height="20" as="geometry" />
        </mxCell>
        <mxCell id="OooZ02oLBbBNjy36J86k-34" value="" style="endArrow=classic;html=1;exitX=0.038;exitY=0.997;exitDx=0;exitDy=0;exitPerimeter=0;" edge="1" parent="1">
          <mxGeometry width="50" height="50" relative="1" as="geometry">
            <mxPoint x="520" y="320.00000000000006" as="sourcePoint" />
            <mxPoint x="520" y="361" as="targetPoint" />
          </mxGeometry>
        </mxCell>
        <mxCell id="OooZ02oLBbBNjy36J86k-35" value="" style="endArrow=classic;html=1;exitX=0.038;exitY=0.997;exitDx=0;exitDy=0;exitPerimeter=0;" edge="1" parent="1">
          <mxGeometry width="50" height="50" relative="1" as="geometry">
            <mxPoint x="560" y="320.00000000000006" as="sourcePoint" />
            <mxPoint x="560" y="361" as="targetPoint" />
          </mxGeometry>
        </mxCell>
        <mxCell id="OooZ02oLBbBNjy36J86k-36" value="" style="endArrow=classic;html=1;exitX=0.038;exitY=0.997;exitDx=0;exitDy=0;exitPerimeter=0;" edge="1" parent="1">
          <mxGeometry width="50" height="50" relative="1" as="geometry">
            <mxPoint x="600" y="320.00000000000006" as="sourcePoint" />
            <mxPoint x="600" y="361" as="targetPoint" />
          </mxGeometry>
        </mxCell>
        <mxCell id="OooZ02oLBbBNjy36J86k-37" value="" style="endArrow=classic;html=1;exitX=0.038;exitY=0.997;exitDx=0;exitDy=0;exitPerimeter=0;" edge="1" parent="1">
          <mxGeometry width="50" height="50" relative="1" as="geometry">
            <mxPoint x="480" y="320.00000000000006" as="sourcePoint" />
            <mxPoint x="480" y="361" as="targetPoint" />
          </mxGeometry>
        </mxCell>
        <mxCell id="OooZ02oLBbBNjy36J86k-38" value="" style="endArrow=classic;html=1;exitX=0.038;exitY=0.997;exitDx=0;exitDy=0;exitPerimeter=0;" edge="1" parent="1">
          <mxGeometry width="50" height="50" relative="1" as="geometry">
            <mxPoint x="660" y="320" as="sourcePoint" />
            <mxPoint x="660" y="361" as="targetPoint" />
          </mxGeometry>
        </mxCell>
        <mxCell id="OooZ02oLBbBNjy36J86k-39" value="" style="endArrow=classic;html=1;exitX=0.038;exitY=0.997;exitDx=0;exitDy=0;exitPerimeter=0;" edge="1" parent="1">
          <mxGeometry width="50" height="50" relative="1" as="geometry">
            <mxPoint x="700" y="320" as="sourcePoint" />
            <mxPoint x="700" y="361" as="targetPoint" />
          </mxGeometry>
        </mxCell>
        <mxCell id="OooZ02oLBbBNjy36J86k-40" value="" style="endArrow=classic;html=1;exitX=0.038;exitY=0.997;exitDx=0;exitDy=0;exitPerimeter=0;" edge="1" parent="1">
          <mxGeometry width="50" height="50" relative="1" as="geometry">
            <mxPoint x="740" y="320" as="sourcePoint" />
            <mxPoint x="740" y="361" as="targetPoint" />
          </mxGeometry>
        </mxCell>
        <mxCell id="OooZ02oLBbBNjy36J86k-41" value="" style="endArrow=classic;html=1;exitX=0.038;exitY=0.997;exitDx=0;exitDy=0;exitPerimeter=0;" edge="1" parent="1">
          <mxGeometry width="50" height="50" relative="1" as="geometry">
            <mxPoint x="780" y="320" as="sourcePoint" />
            <mxPoint x="780" y="361" as="targetPoint" />
          </mxGeometry>
        </mxCell>
        <mxCell id="OooZ02oLBbBNjy36J86k-42" value="" style="endArrow=classic;html=1;exitX=0.038;exitY=0.997;exitDx=0;exitDy=0;exitPerimeter=0;" edge="1" parent="1">
          <mxGeometry width="50" height="50" relative="1" as="geometry">
            <mxPoint x="840" y="320" as="sourcePoint" />
            <mxPoint x="840" y="361" as="targetPoint" />
          </mxGeometry>
        </mxCell>
        <mxCell id="OooZ02oLBbBNjy36J86k-43" value="" style="endArrow=classic;html=1;exitX=0.038;exitY=0.997;exitDx=0;exitDy=0;exitPerimeter=0;" edge="1" parent="1">
          <mxGeometry width="50" height="50" relative="1" as="geometry">
            <mxPoint x="880" y="320" as="sourcePoint" />
            <mxPoint x="880" y="361" as="targetPoint" />
          </mxGeometry>
        </mxCell>
        <mxCell id="OooZ02oLBbBNjy36J86k-44" value="" style="endArrow=classic;html=1;exitX=0.038;exitY=0.997;exitDx=0;exitDy=0;exitPerimeter=0;" edge="1" parent="1">
          <mxGeometry width="50" height="50" relative="1" as="geometry">
            <mxPoint x="920" y="320" as="sourcePoint" />
            <mxPoint x="920" y="361" as="targetPoint" />
          </mxGeometry>
        </mxCell>
        <mxCell id="OooZ02oLBbBNjy36J86k-45" value="" style="endArrow=classic;html=1;exitX=0.038;exitY=0.997;exitDx=0;exitDy=0;exitPerimeter=0;" edge="1" parent="1">
          <mxGeometry width="50" height="50" relative="1" as="geometry">
            <mxPoint x="960" y="320" as="sourcePoint" />
            <mxPoint x="960" y="361" as="targetPoint" />
          </mxGeometry>
        </mxCell>
        <mxCell id="OooZ02oLBbBNjy36J86k-46" value="a3" style="text;html=1;strokeColor=none;fillColor=none;align=center;verticalAlign=middle;whiteSpace=wrap;rounded=0;" vertex="1" parent="1">
          <mxGeometry x="460" y="360" width="40" height="20" as="geometry" />
        </mxCell>
        <mxCell id="OooZ02oLBbBNjy36J86k-47" value="a2" style="text;html=1;strokeColor=none;fillColor=none;align=center;verticalAlign=middle;whiteSpace=wrap;rounded=0;" vertex="1" parent="1">
          <mxGeometry x="500" y="360" width="40" height="20" as="geometry" />
        </mxCell>
        <mxCell id="OooZ02oLBbBNjy36J86k-48" value="a1" style="text;html=1;strokeColor=none;fillColor=none;align=center;verticalAlign=middle;whiteSpace=wrap;rounded=0;" vertex="1" parent="1">
          <mxGeometry x="540" y="360" width="40" height="20" as="geometry" />
        </mxCell>
        <mxCell id="OooZ02oLBbBNjy36J86k-49" value="a0" style="text;html=1;strokeColor=none;fillColor=none;align=center;verticalAlign=middle;whiteSpace=wrap;rounded=0;" vertex="1" parent="1">
          <mxGeometry x="580" y="360" width="40" height="20" as="geometry" />
        </mxCell>
        <mxCell id="OooZ02oLBbBNjy36J86k-50" value="b3" style="text;html=1;strokeColor=none;fillColor=none;align=center;verticalAlign=middle;whiteSpace=wrap;rounded=0;" vertex="1" parent="1">
          <mxGeometry x="640" y="360" width="40" height="20" as="geometry" />
        </mxCell>
        <mxCell id="OooZ02oLBbBNjy36J86k-51" value="b2" style="text;html=1;strokeColor=none;fillColor=none;align=center;verticalAlign=middle;whiteSpace=wrap;rounded=0;" vertex="1" parent="1">
          <mxGeometry x="680" y="360" width="40" height="20" as="geometry" />
        </mxCell>
        <mxCell id="OooZ02oLBbBNjy36J86k-52" value="b1" style="text;html=1;strokeColor=none;fillColor=none;align=center;verticalAlign=middle;whiteSpace=wrap;rounded=0;" vertex="1" parent="1">
          <mxGeometry x="720" y="360" width="40" height="20" as="geometry" />
        </mxCell>
        <mxCell id="OooZ02oLBbBNjy36J86k-53" value="b0" style="text;html=1;strokeColor=none;fillColor=none;align=center;verticalAlign=middle;whiteSpace=wrap;rounded=0;" vertex="1" parent="1">
          <mxGeometry x="760" y="360" width="40" height="20" as="geometry" />
        </mxCell>
        <mxCell id="OooZ02oLBbBNjy36J86k-54" value="c3" style="text;html=1;strokeColor=none;fillColor=none;align=center;verticalAlign=middle;whiteSpace=wrap;rounded=0;" vertex="1" parent="1">
          <mxGeometry x="820" y="360" width="40" height="20" as="geometry" />
        </mxCell>
        <mxCell id="OooZ02oLBbBNjy36J86k-55" value="c2" style="text;html=1;strokeColor=none;fillColor=none;align=center;verticalAlign=middle;whiteSpace=wrap;rounded=0;" vertex="1" parent="1">
          <mxGeometry x="860" y="360" width="40" height="20" as="geometry" />
        </mxCell>
        <mxCell id="OooZ02oLBbBNjy36J86k-56" value="c1" style="text;html=1;strokeColor=none;fillColor=none;align=center;verticalAlign=middle;whiteSpace=wrap;rounded=0;" vertex="1" parent="1">
          <mxGeometry x="900" y="360" width="40" height="20" as="geometry" />
        </mxCell>
        <mxCell id="OooZ02oLBbBNjy36J86k-57" value="c0" style="text;html=1;strokeColor=none;fillColor=none;align=center;verticalAlign=middle;whiteSpace=wrap;rounded=0;" vertex="1" parent="1">
          <mxGeometry x="940" y="360" width="40" height="20" as="geometry" />
        </mxCell>
        <mxCell id="OooZ02oLBbBNjy36J86k-58" value="0" style="text;html=1;strokeColor=none;fillColor=none;align=center;verticalAlign=middle;whiteSpace=wrap;rounded=0;" vertex="1" parent="1">
          <mxGeometry x="940" y="390" width="40" height="20" as="geometry" />
        </mxCell>
        <mxCell id="OooZ02oLBbBNjy36J86k-59" value="0" style="text;html=1;strokeColor=none;fillColor=none;align=center;verticalAlign=middle;whiteSpace=wrap;rounded=0;" vertex="1" parent="1">
          <mxGeometry x="900" y="390" width="40" height="20" as="geometry" />
        </mxCell>
        <mxCell id="OooZ02oLBbBNjy36J86k-60" value="0" style="text;html=1;strokeColor=none;fillColor=none;align=center;verticalAlign=middle;whiteSpace=wrap;rounded=0;" vertex="1" parent="1">
          <mxGeometry x="860" y="390" width="40" height="20" as="geometry" />
        </mxCell>
        <mxCell id="OooZ02oLBbBNjy36J86k-61" value="0" style="text;html=1;strokeColor=none;fillColor=none;align=center;verticalAlign=middle;whiteSpace=wrap;rounded=0;" vertex="1" parent="1">
          <mxGeometry x="820" y="390" width="40" height="20" as="geometry" />
        </mxCell>
        <mxCell id="OooZ02oLBbBNjy36J86k-62" value="0" style="text;html=1;strokeColor=none;fillColor=none;align=center;verticalAlign=middle;whiteSpace=wrap;rounded=0;" vertex="1" parent="1">
          <mxGeometry x="760" y="390" width="40" height="20" as="geometry" />
        </mxCell>
        <mxCell id="OooZ02oLBbBNjy36J86k-63" value="1" style="text;html=1;strokeColor=none;fillColor=none;align=center;verticalAlign=middle;whiteSpace=wrap;rounded=0;" vertex="1" parent="1">
          <mxGeometry x="720" y="390" width="40" height="20" as="geometry" />
        </mxCell>
        <mxCell id="OooZ02oLBbBNjy36J86k-64" value="1" style="text;html=1;strokeColor=none;fillColor=none;align=center;verticalAlign=middle;whiteSpace=wrap;rounded=0;" vertex="1" parent="1">
          <mxGeometry x="680" y="390" width="40" height="20" as="geometry" />
        </mxCell>
        <mxCell id="OooZ02oLBbBNjy36J86k-65" value="0" style="text;html=1;strokeColor=none;fillColor=none;align=center;verticalAlign=middle;whiteSpace=wrap;rounded=0;" vertex="1" parent="1">
          <mxGeometry x="640" y="390" width="40" height="20" as="geometry" />
        </mxCell>
        <mxCell id="OooZ02oLBbBNjy36J86k-67" value="1" style="text;html=1;strokeColor=none;fillColor=none;align=center;verticalAlign=middle;whiteSpace=wrap;rounded=0;" vertex="1" parent="1">
          <mxGeometry x="580" y="390" width="40" height="20" as="geometry" />
        </mxCell>
        <mxCell id="OooZ02oLBbBNjy36J86k-68" value="0" style="text;html=1;strokeColor=none;fillColor=none;align=center;verticalAlign=middle;whiteSpace=wrap;rounded=0;" vertex="1" parent="1">
          <mxGeometry x="540" y="390" width="40" height="20" as="geometry" />
        </mxCell>
        <mxCell id="OooZ02oLBbBNjy36J86k-69" value="0" style="text;html=1;strokeColor=none;fillColor=none;align=center;verticalAlign=middle;whiteSpace=wrap;rounded=0;" vertex="1" parent="1">
          <mxGeometry x="500" y="390" width="40" height="20" as="geometry" />
        </mxCell>
        <mxCell id="OooZ02oLBbBNjy36J86k-70" value="1" style="text;html=1;strokeColor=none;fillColor=none;align=center;verticalAlign=middle;whiteSpace=wrap;rounded=0;" vertex="1" parent="1">
          <mxGeometry x="460" y="390" width="40" height="20" as="geometry" />
        </mxCell>
        <mxCell id="OooZ02oLBbBNjy36J86k-71" value="" style="rounded=0;whiteSpace=wrap;html=1;strokeColor=#000000;fillColor=#ffffff;" vertex="1" parent="1">
          <mxGeometry x="530" y="110" width="80" height="180" as="geometry" />
        </mxCell>
        <mxCell id="OooZ02oLBbBNjy36J86k-72" value="" style="triangle;whiteSpace=wrap;html=1;strokeColor=#000000;fillColor=#ffffff;rotation=-90;" vertex="1" parent="1">
          <mxGeometry x="561.57" y="264.69" width="16.87" height="33.75" as="geometry" />
        </mxCell>
        <mxCell id="OooZ02oLBbBNjy36J86k-73" value="" style="rounded=0;whiteSpace=wrap;html=1;strokeColor=#000000;fillColor=#ffffff;" vertex="1" parent="1">
          <mxGeometry x="810" y="110" width="80" height="180" as="geometry" />
        </mxCell>
        <mxCell id="OooZ02oLBbBNjy36J86k-74" value="" style="triangle;whiteSpace=wrap;html=1;strokeColor=#000000;fillColor=#ffffff;rotation=-90;" vertex="1" parent="1">
          <mxGeometry x="841.57" y="264.69" width="16.87" height="33.75" as="geometry" />
        </mxCell>
        <mxCell id="OooZ02oLBbBNjy36J86k-75" value="" style="endArrow=none;html=1;" edge="1" parent="1">
          <mxGeometry width="50" height="50" relative="1" as="geometry">
            <mxPoint x="450" y="120" as="sourcePoint" />
            <mxPoint x="530" y="120" as="targetPoint" />
          </mxGeometry>
        </mxCell>
        <mxCell id="OooZ02oLBbBNjy36J86k-76" value="" style="endArrow=none;html=1;" edge="1" parent="1">
          <mxGeometry width="50" height="50" relative="1" as="geometry">
            <mxPoint x="450" y="160" as="sourcePoint" />
            <mxPoint x="530" y="160" as="targetPoint" />
          </mxGeometry>
        </mxCell>
        <mxCell id="OooZ02oLBbBNjy36J86k-77" value="" style="endArrow=none;html=1;" edge="1" parent="1">
          <mxGeometry width="50" height="50" relative="1" as="geometry">
            <mxPoint x="450" y="200" as="sourcePoint" />
            <mxPoint x="530" y="200" as="targetPoint" />
          </mxGeometry>
        </mxCell>
        <mxCell id="OooZ02oLBbBNjy36J86k-78" value="" style="endArrow=none;html=1;" edge="1" parent="1">
          <mxGeometry width="50" height="50" relative="1" as="geometry">
            <mxPoint x="450" y="240" as="sourcePoint" />
            <mxPoint x="530" y="240" as="targetPoint" />
          </mxGeometry>
        </mxCell>
        <mxCell id="OooZ02oLBbBNjy36J86k-80" value="" style="rounded=0;whiteSpace=wrap;html=1;" vertex="1" parent="1">
          <mxGeometry x="301.57" y="610" width="438.43" height="140" as="geometry" />
        </mxCell>
        <mxCell id="OooZ02oLBbBNjy36J86k-81" value="" style="endArrow=classic;html=1;exitX=0.038;exitY=0.997;exitDx=0;exitDy=0;exitPerimeter=0;" edge="1" parent="1">
          <mxGeometry width="50" height="50" relative="1" as="geometry">
            <mxPoint x="380" y="569" as="sourcePoint" />
            <mxPoint x="380" y="610" as="targetPoint" />
          </mxGeometry>
        </mxCell>
        <mxCell id="OooZ02oLBbBNjy36J86k-82" value="" style="endArrow=classic;html=1;exitX=0.038;exitY=0.997;exitDx=0;exitDy=0;exitPerimeter=0;" edge="1" parent="1">
          <mxGeometry width="50" height="50" relative="1" as="geometry">
            <mxPoint x="420" y="569" as="sourcePoint" />
            <mxPoint x="420" y="610" as="targetPoint" />
          </mxGeometry>
        </mxCell>
        <mxCell id="OooZ02oLBbBNjy36J86k-83" value="" style="endArrow=classic;html=1;exitX=0.038;exitY=0.997;exitDx=0;exitDy=0;exitPerimeter=0;" edge="1" parent="1">
          <mxGeometry width="50" height="50" relative="1" as="geometry">
            <mxPoint x="460" y="569" as="sourcePoint" />
            <mxPoint x="460" y="610" as="targetPoint" />
          </mxGeometry>
        </mxCell>
        <mxCell id="OooZ02oLBbBNjy36J86k-84" value="" style="endArrow=classic;html=1;exitX=0.038;exitY=0.997;exitDx=0;exitDy=0;exitPerimeter=0;" edge="1" parent="1">
          <mxGeometry width="50" height="50" relative="1" as="geometry">
            <mxPoint x="340" y="569" as="sourcePoint" />
            <mxPoint x="340" y="610" as="targetPoint" />
          </mxGeometry>
        </mxCell>
        <mxCell id="OooZ02oLBbBNjy36J86k-85" value="" style="endArrow=classic;html=1;exitX=0.038;exitY=0.997;exitDx=0;exitDy=0;exitPerimeter=0;" edge="1" parent="1">
          <mxGeometry width="50" height="50" relative="1" as="geometry">
            <mxPoint x="520" y="569" as="sourcePoint" />
            <mxPoint x="520" y="610" as="targetPoint" />
          </mxGeometry>
        </mxCell>
        <mxCell id="OooZ02oLBbBNjy36J86k-86" value="" style="endArrow=classic;html=1;exitX=0.038;exitY=0.997;exitDx=0;exitDy=0;exitPerimeter=0;" edge="1" parent="1">
          <mxGeometry width="50" height="50" relative="1" as="geometry">
            <mxPoint x="560" y="569" as="sourcePoint" />
            <mxPoint x="560" y="610" as="targetPoint" />
          </mxGeometry>
        </mxCell>
        <mxCell id="OooZ02oLBbBNjy36J86k-87" value="" style="endArrow=classic;html=1;exitX=0.038;exitY=0.997;exitDx=0;exitDy=0;exitPerimeter=0;" edge="1" parent="1">
          <mxGeometry width="50" height="50" relative="1" as="geometry">
            <mxPoint x="600" y="569" as="sourcePoint" />
            <mxPoint x="600" y="610" as="targetPoint" />
          </mxGeometry>
        </mxCell>
        <mxCell id="OooZ02oLBbBNjy36J86k-88" value="" style="endArrow=classic;html=1;exitX=0.038;exitY=0.997;exitDx=0;exitDy=0;exitPerimeter=0;" edge="1" parent="1">
          <mxGeometry width="50" height="50" relative="1" as="geometry">
            <mxPoint x="640" y="569" as="sourcePoint" />
            <mxPoint x="640" y="610" as="targetPoint" />
          </mxGeometry>
        </mxCell>
        <mxCell id="OooZ02oLBbBNjy36J86k-89" value="" style="endArrow=classic;html=1;exitX=0.038;exitY=0.997;exitDx=0;exitDy=0;exitPerimeter=0;" edge="1" parent="1">
          <mxGeometry width="50" height="50" relative="1" as="geometry">
            <mxPoint x="700" y="569" as="sourcePoint" />
            <mxPoint x="700" y="610" as="targetPoint" />
          </mxGeometry>
        </mxCell>
        <mxCell id="OooZ02oLBbBNjy36J86k-90" value="" style="endArrow=classic;html=1;exitX=0.038;exitY=0.997;exitDx=0;exitDy=0;exitPerimeter=0;" edge="1" parent="1">
          <mxGeometry width="50" height="50" relative="1" as="geometry">
            <mxPoint x="407.61" y="750" as="sourcePoint" />
            <mxPoint x="407.61" y="791" as="targetPoint" />
          </mxGeometry>
        </mxCell>
        <mxCell id="OooZ02oLBbBNjy36J86k-91" value="" style="endArrow=classic;html=1;exitX=0.038;exitY=0.997;exitDx=0;exitDy=0;exitPerimeter=0;" edge="1" parent="1">
          <mxGeometry width="50" height="50" relative="1" as="geometry">
            <mxPoint x="467.61" y="750" as="sourcePoint" />
            <mxPoint x="467.61" y="791" as="targetPoint" />
          </mxGeometry>
        </mxCell>
        <mxCell id="OooZ02oLBbBNjy36J86k-92" value="" style="endArrow=classic;html=1;exitX=0.038;exitY=0.997;exitDx=0;exitDy=0;exitPerimeter=0;" edge="1" parent="1">
          <mxGeometry width="50" height="50" relative="1" as="geometry">
            <mxPoint x="507.61" y="750" as="sourcePoint" />
            <mxPoint x="507.61" y="791" as="targetPoint" />
          </mxGeometry>
        </mxCell>
        <mxCell id="OooZ02oLBbBNjy36J86k-93" value="" style="endArrow=classic;html=1;exitX=0.038;exitY=0.997;exitDx=0;exitDy=0;exitPerimeter=0;" edge="1" parent="1">
          <mxGeometry width="50" height="50" relative="1" as="geometry">
            <mxPoint x="547.61" y="750" as="sourcePoint" />
            <mxPoint x="547.61" y="791" as="targetPoint" />
          </mxGeometry>
        </mxCell>
        <mxCell id="OooZ02oLBbBNjy36J86k-94" value="" style="endArrow=classic;html=1;exitX=0.038;exitY=0.997;exitDx=0;exitDy=0;exitPerimeter=0;" edge="1" parent="1">
          <mxGeometry width="50" height="50" relative="1" as="geometry">
            <mxPoint x="587.61" y="750" as="sourcePoint" />
            <mxPoint x="587.61" y="791" as="targetPoint" />
          </mxGeometry>
        </mxCell>
        <mxCell id="OooZ02oLBbBNjy36J86k-95" value="b3" style="text;html=1;strokeColor=none;fillColor=none;align=center;verticalAlign=middle;whiteSpace=wrap;rounded=0;" vertex="1" parent="1">
          <mxGeometry x="320" y="550" width="40" height="20" as="geometry" />
        </mxCell>
        <mxCell id="OooZ02oLBbBNjy36J86k-96" value="b2" style="text;html=1;strokeColor=none;fillColor=none;align=center;verticalAlign=middle;whiteSpace=wrap;rounded=0;" vertex="1" parent="1">
          <mxGeometry x="360" y="550" width="40" height="20" as="geometry" />
        </mxCell>
        <mxCell id="OooZ02oLBbBNjy36J86k-97" value="b1" style="text;html=1;strokeColor=none;fillColor=none;align=center;verticalAlign=middle;whiteSpace=wrap;rounded=0;" vertex="1" parent="1">
          <mxGeometry x="400" y="550" width="40" height="20" as="geometry" />
        </mxCell>
        <mxCell id="OooZ02oLBbBNjy36J86k-98" value="b0" style="text;html=1;strokeColor=none;fillColor=none;align=center;verticalAlign=middle;whiteSpace=wrap;rounded=0;" vertex="1" parent="1">
          <mxGeometry x="440" y="550" width="40" height="20" as="geometry" />
        </mxCell>
        <mxCell id="OooZ02oLBbBNjy36J86k-99" value="a3" style="text;html=1;strokeColor=none;fillColor=none;align=center;verticalAlign=middle;whiteSpace=wrap;rounded=0;" vertex="1" parent="1">
          <mxGeometry x="500" y="550" width="40" height="20" as="geometry" />
        </mxCell>
        <mxCell id="OooZ02oLBbBNjy36J86k-100" value="a2" style="text;html=1;strokeColor=none;fillColor=none;align=center;verticalAlign=middle;whiteSpace=wrap;rounded=0;" vertex="1" parent="1">
          <mxGeometry x="540" y="550" width="40" height="20" as="geometry" />
        </mxCell>
        <mxCell id="OooZ02oLBbBNjy36J86k-101" value="a1" style="text;html=1;strokeColor=none;fillColor=none;align=center;verticalAlign=middle;whiteSpace=wrap;rounded=0;" vertex="1" parent="1">
          <mxGeometry x="580" y="550" width="40" height="20" as="geometry" />
        </mxCell>
        <mxCell id="OooZ02oLBbBNjy36J86k-102" value="a0" style="text;html=1;strokeColor=none;fillColor=none;align=center;verticalAlign=middle;whiteSpace=wrap;rounded=0;" vertex="1" parent="1">
          <mxGeometry x="620" y="550" width="40" height="20" as="geometry" />
        </mxCell>
        <mxCell id="OooZ02oLBbBNjy36J86k-103" value="ci" style="text;html=1;strokeColor=none;fillColor=none;align=center;verticalAlign=middle;whiteSpace=wrap;rounded=0;" vertex="1" parent="1">
          <mxGeometry x="680" y="550" width="40" height="20" as="geometry" />
        </mxCell>
        <mxCell id="OooZ02oLBbBNjy36J86k-104" value="co" style="text;html=1;strokeColor=none;fillColor=none;align=center;verticalAlign=middle;whiteSpace=wrap;rounded=0;" vertex="1" parent="1">
          <mxGeometry x="390" y="790" width="40" height="20" as="geometry" />
        </mxCell>
        <mxCell id="OooZ02oLBbBNjy36J86k-105" value="s3" style="text;html=1;strokeColor=none;fillColor=none;align=center;verticalAlign=middle;whiteSpace=wrap;rounded=0;" vertex="1" parent="1">
          <mxGeometry x="450" y="790" width="40" height="20" as="geometry" />
        </mxCell>
        <mxCell id="OooZ02oLBbBNjy36J86k-106" value="s2" style="text;html=1;strokeColor=none;fillColor=none;align=center;verticalAlign=middle;whiteSpace=wrap;rounded=0;" vertex="1" parent="1">
          <mxGeometry x="490" y="790" width="40" height="20" as="geometry" />
        </mxCell>
        <mxCell id="OooZ02oLBbBNjy36J86k-107" value="s1" style="text;html=1;strokeColor=none;fillColor=none;align=center;verticalAlign=middle;whiteSpace=wrap;rounded=0;" vertex="1" parent="1">
          <mxGeometry x="530" y="790" width="40" height="20" as="geometry" />
        </mxCell>
        <mxCell id="OooZ02oLBbBNjy36J86k-108" value="s0" style="text;html=1;strokeColor=none;fillColor=none;align=center;verticalAlign=middle;whiteSpace=wrap;rounded=0;" vertex="1" parent="1">
          <mxGeometry x="570" y="790" width="40" height="20" as="geometry" />
        </mxCell>
        <mxCell id="OooZ02oLBbBNjy36J86k-109" value="&lt;font style=&quot;font-size: 23px&quot;&gt;Circuit to be designed&lt;/font&gt;" style="text;html=1;strokeColor=none;fillColor=none;align=center;verticalAlign=middle;whiteSpace=wrap;rounded=0;" vertex="1" parent="1">
          <mxGeometry x="380" y="620" width="276" height="120" as="geometry" />
        </mxCell>
        <mxCell id="OooZ02oLBbBNjy36J86k-110" value="" style="whiteSpace=wrap;html=1;aspect=fixed;strokeColor=#000000;fillColor=#ffffff;" vertex="1" parent="1">
          <mxGeometry x="1130" y="610" width="100" height="100" as="geometry" />
        </mxCell>
        <mxCell id="OooZ02oLBbBNjy36J86k-111" value="" style="whiteSpace=wrap;html=1;aspect=fixed;strokeColor=#000000;fillColor=#ffffff;" vertex="1" parent="1">
          <mxGeometry x="1280" y="610" width="100" height="100" as="geometry" />
        </mxCell>
        <mxCell id="OooZ02oLBbBNjy36J86k-112" value="" style="whiteSpace=wrap;html=1;aspect=fixed;strokeColor=#000000;fillColor=#ffffff;" vertex="1" parent="1">
          <mxGeometry x="1430" y="610" width="100" height="100" as="geometry" />
        </mxCell>
        <mxCell id="OooZ02oLBbBNjy36J86k-113" value="" style="whiteSpace=wrap;html=1;aspect=fixed;strokeColor=#000000;fillColor=#ffffff;" vertex="1" parent="1">
          <mxGeometry x="1590" y="610" width="100" height="100" as="geometry" />
        </mxCell>
        <mxCell id="OooZ02oLBbBNjy36J86k-114" value="" style="endArrow=classic;html=1;exitX=0.038;exitY=0.997;exitDx=0;exitDy=0;exitPerimeter=0;" edge="1" parent="1">
          <mxGeometry width="50" height="50" relative="1" as="geometry">
            <mxPoint x="1150" y="569" as="sourcePoint" />
            <mxPoint x="1150" y="610" as="targetPoint" />
          </mxGeometry>
        </mxCell>
        <mxCell id="OooZ02oLBbBNjy36J86k-115" value="" style="endArrow=classic;html=1;exitX=0.038;exitY=0.997;exitDx=0;exitDy=0;exitPerimeter=0;" edge="1" parent="1">
          <mxGeometry width="50" height="50" relative="1" as="geometry">
            <mxPoint x="1179.5" y="569" as="sourcePoint" />
            <mxPoint x="1179.5" y="610" as="targetPoint" />
          </mxGeometry>
        </mxCell>
        <mxCell id="OooZ02oLBbBNjy36J86k-116" value="" style="endArrow=classic;html=1;exitX=0.038;exitY=0.997;exitDx=0;exitDy=0;exitPerimeter=0;" edge="1" parent="1">
          <mxGeometry width="50" height="50" relative="1" as="geometry">
            <mxPoint x="1300" y="570" as="sourcePoint" />
            <mxPoint x="1300" y="611" as="targetPoint" />
          </mxGeometry>
        </mxCell>
        <mxCell id="OooZ02oLBbBNjy36J86k-117" value="" style="endArrow=classic;html=1;exitX=0.038;exitY=0.997;exitDx=0;exitDy=0;exitPerimeter=0;" edge="1" parent="1">
          <mxGeometry width="50" height="50" relative="1" as="geometry">
            <mxPoint x="1329.5" y="570" as="sourcePoint" />
            <mxPoint x="1329.5" y="611" as="targetPoint" />
          </mxGeometry>
        </mxCell>
        <mxCell id="OooZ02oLBbBNjy36J86k-118" value="" style="endArrow=classic;html=1;exitX=0.038;exitY=0.997;exitDx=0;exitDy=0;exitPerimeter=0;" edge="1" parent="1">
          <mxGeometry width="50" height="50" relative="1" as="geometry">
            <mxPoint x="1450" y="570" as="sourcePoint" />
            <mxPoint x="1450" y="611" as="targetPoint" />
          </mxGeometry>
        </mxCell>
        <mxCell id="OooZ02oLBbBNjy36J86k-119" value="" style="endArrow=classic;html=1;exitX=0.038;exitY=0.997;exitDx=0;exitDy=0;exitPerimeter=0;" edge="1" parent="1">
          <mxGeometry width="50" height="50" relative="1" as="geometry">
            <mxPoint x="1479.5" y="570" as="sourcePoint" />
            <mxPoint x="1479.5" y="611" as="targetPoint" />
          </mxGeometry>
        </mxCell>
        <mxCell id="OooZ02oLBbBNjy36J86k-120" value="" style="endArrow=classic;html=1;exitX=0.038;exitY=0.997;exitDx=0;exitDy=0;exitPerimeter=0;" edge="1" parent="1">
          <mxGeometry width="50" height="50" relative="1" as="geometry">
            <mxPoint x="1600" y="569" as="sourcePoint" />
            <mxPoint x="1600" y="610" as="targetPoint" />
          </mxGeometry>
        </mxCell>
        <mxCell id="OooZ02oLBbBNjy36J86k-121" value="" style="endArrow=classic;html=1;exitX=0.038;exitY=0.997;exitDx=0;exitDy=0;exitPerimeter=0;" edge="1" parent="1">
          <mxGeometry width="50" height="50" relative="1" as="geometry">
            <mxPoint x="1639.5" y="569" as="sourcePoint" />
            <mxPoint x="1639.5" y="610" as="targetPoint" />
          </mxGeometry>
        </mxCell>
        <mxCell id="OooZ02oLBbBNjy36J86k-122" value="" style="endArrow=classic;html=1;exitX=0.038;exitY=0.997;exitDx=0;exitDy=0;exitPerimeter=0;" edge="1" parent="1">
          <mxGeometry width="50" height="50" relative="1" as="geometry">
            <mxPoint x="1680" y="570" as="sourcePoint" />
            <mxPoint x="1680" y="611" as="targetPoint" />
          </mxGeometry>
        </mxCell>
        <mxCell id="OooZ02oLBbBNjy36J86k-123" value="" style="endArrow=classic;html=1;exitX=0.038;exitY=0.997;exitDx=0;exitDy=0;exitPerimeter=0;" edge="1" parent="1">
          <mxGeometry width="50" height="50" relative="1" as="geometry">
            <mxPoint x="1670" y="709" as="sourcePoint" />
            <mxPoint x="1670" y="750" as="targetPoint" />
          </mxGeometry>
        </mxCell>
        <mxCell id="OooZ02oLBbBNjy36J86k-124" value="" style="endArrow=classic;html=1;exitX=0.038;exitY=0.997;exitDx=0;exitDy=0;exitPerimeter=0;" edge="1" parent="1">
          <mxGeometry width="50" height="50" relative="1" as="geometry">
            <mxPoint x="1500" y="710" as="sourcePoint" />
            <mxPoint x="1500" y="751" as="targetPoint" />
          </mxGeometry>
        </mxCell>
        <mxCell id="OooZ02oLBbBNjy36J86k-125" value="" style="endArrow=classic;html=1;exitX=0.038;exitY=0.997;exitDx=0;exitDy=0;exitPerimeter=0;" edge="1" parent="1">
          <mxGeometry width="50" height="50" relative="1" as="geometry">
            <mxPoint x="1360" y="710" as="sourcePoint" />
            <mxPoint x="1360" y="751" as="targetPoint" />
          </mxGeometry>
        </mxCell>
        <mxCell id="OooZ02oLBbBNjy36J86k-126" value="" style="endArrow=classic;html=1;exitX=0.038;exitY=0.997;exitDx=0;exitDy=0;exitPerimeter=0;" edge="1" parent="1">
          <mxGeometry width="50" height="50" relative="1" as="geometry">
            <mxPoint x="1210" y="710" as="sourcePoint" />
            <mxPoint x="1210" y="751" as="targetPoint" />
          </mxGeometry>
        </mxCell>
        <mxCell id="OooZ02oLBbBNjy36J86k-127" value="" style="endArrow=classic;html=1;exitX=0.038;exitY=0.997;exitDx=0;exitDy=0;exitPerimeter=0;" edge="1" parent="1">
          <mxGeometry width="50" height="50" relative="1" as="geometry">
            <mxPoint x="1150" y="710" as="sourcePoint" />
            <mxPoint x="1150" y="751" as="targetPoint" />
          </mxGeometry>
        </mxCell>
        <mxCell id="OooZ02oLBbBNjy36J86k-129" value="&lt;font style=&quot;font-size: 17px&quot;&gt;FA&lt;/font&gt;" style="text;html=1;strokeColor=none;fillColor=none;align=center;verticalAlign=middle;whiteSpace=wrap;rounded=0;" vertex="1" parent="1">
          <mxGeometry x="1155" y="645" width="50" height="30" as="geometry" />
        </mxCell>
        <mxCell id="OooZ02oLBbBNjy36J86k-130" value="&lt;font style=&quot;font-size: 17px&quot;&gt;FA&lt;/font&gt;" style="text;html=1;strokeColor=none;fillColor=none;align=center;verticalAlign=middle;whiteSpace=wrap;rounded=0;" vertex="1" parent="1">
          <mxGeometry x="1305" y="645" width="50" height="30" as="geometry" />
        </mxCell>
        <mxCell id="OooZ02oLBbBNjy36J86k-131" value="&lt;font style=&quot;font-size: 17px&quot;&gt;FA&lt;/font&gt;" style="text;html=1;strokeColor=none;fillColor=none;align=center;verticalAlign=middle;whiteSpace=wrap;rounded=0;" vertex="1" parent="1">
          <mxGeometry x="1455" y="645" width="50" height="30" as="geometry" />
        </mxCell>
        <mxCell id="OooZ02oLBbBNjy36J86k-132" value="&lt;font style=&quot;font-size: 17px&quot;&gt;FA&lt;/font&gt;" style="text;html=1;strokeColor=none;fillColor=none;align=center;verticalAlign=middle;whiteSpace=wrap;rounded=0;" vertex="1" parent="1">
          <mxGeometry x="1615" y="645" width="50" height="30" as="geometry" />
        </mxCell>
        <mxCell id="OooZ02oLBbBNjy36J86k-133" value="b0" style="text;html=1;strokeColor=none;fillColor=none;align=center;verticalAlign=middle;whiteSpace=wrap;rounded=0;" vertex="1" parent="1">
          <mxGeometry x="1580" y="550" width="40" height="20" as="geometry" />
        </mxCell>
        <mxCell id="OooZ02oLBbBNjy36J86k-134" value="a0" style="text;html=1;strokeColor=none;fillColor=none;align=center;verticalAlign=middle;whiteSpace=wrap;rounded=0;" vertex="1" parent="1">
          <mxGeometry x="1620" y="550" width="40" height="20" as="geometry" />
        </mxCell>
        <mxCell id="OooZ02oLBbBNjy36J86k-135" value="ci" style="text;html=1;strokeColor=none;fillColor=none;align=center;verticalAlign=middle;whiteSpace=wrap;rounded=0;" vertex="1" parent="1">
          <mxGeometry x="1660" y="550" width="40" height="20" as="geometry" />
        </mxCell>
        <mxCell id="OooZ02oLBbBNjy36J86k-136" value="s0" style="text;html=1;strokeColor=none;fillColor=none;align=center;verticalAlign=middle;whiteSpace=wrap;rounded=0;" vertex="1" parent="1">
          <mxGeometry x="1650" y="750" width="40" height="20" as="geometry" />
        </mxCell>
        <mxCell id="OooZ02oLBbBNjy36J86k-137" value="co" style="text;html=1;strokeColor=none;fillColor=none;align=center;verticalAlign=middle;whiteSpace=wrap;rounded=0;" vertex="1" parent="1">
          <mxGeometry x="1130" y="750" width="40" height="20" as="geometry" />
        </mxCell>
        <mxCell id="OooZ02oLBbBNjy36J86k-138" value="" style="endArrow=classic;html=1;exitX=0.25;exitY=1;exitDx=0;exitDy=0;entryX=0.75;entryY=0;entryDx=0;entryDy=0;" edge="1" parent="1" source="OooZ02oLBbBNjy36J86k-113" target="OooZ02oLBbBNjy36J86k-112">
          <mxGeometry width="50" height="50" relative="1" as="geometry">
            <mxPoint x="1340" y="670" as="sourcePoint" />
            <mxPoint x="1390" y="620" as="targetPoint" />
            <Array as="points">
              <mxPoint x="1615" y="750" />
              <mxPoint x="1560" y="750" />
              <mxPoint x="1560" y="570" />
              <mxPoint x="1505" y="570" />
            </Array>
          </mxGeometry>
        </mxCell>
        <mxCell id="OooZ02oLBbBNjy36J86k-139" value="" style="endArrow=classic;html=1;exitX=0.25;exitY=1;exitDx=0;exitDy=0;entryX=0.75;entryY=0;entryDx=0;entryDy=0;" edge="1" parent="1">
          <mxGeometry width="50" height="50" relative="1" as="geometry">
            <mxPoint x="1465" y="710" as="sourcePoint" />
            <mxPoint x="1355" y="610" as="targetPoint" />
            <Array as="points">
              <mxPoint x="1465" y="750" />
              <mxPoint x="1410" y="750" />
              <mxPoint x="1410" y="570" />
              <mxPoint x="1355" y="570" />
            </Array>
          </mxGeometry>
        </mxCell>
        <mxCell id="OooZ02oLBbBNjy36J86k-140" value="" style="endArrow=classic;html=1;exitX=0.25;exitY=1;exitDx=0;exitDy=0;entryX=0.75;entryY=0;entryDx=0;entryDy=0;" edge="1" parent="1">
          <mxGeometry width="50" height="50" relative="1" as="geometry">
            <mxPoint x="1315" y="710" as="sourcePoint" />
            <mxPoint x="1205" y="610" as="targetPoint" />
            <Array as="points">
              <mxPoint x="1315" y="750" />
              <mxPoint x="1260" y="750" />
              <mxPoint x="1260" y="570" />
              <mxPoint x="1205" y="570" />
            </Array>
          </mxGeometry>
        </mxCell>
        <mxCell id="OooZ02oLBbBNjy36J86k-141" value="" style="rounded=0;whiteSpace=wrap;html=1;" vertex="1" parent="1">
          <mxGeometry x="301.57" y="1050" width="368.43" height="160" as="geometry" />
        </mxCell>
        <mxCell id="OooZ02oLBbBNjy36J86k-142" value="" style="endArrow=classic;html=1;" edge="1" parent="1">
          <mxGeometry width="50" height="50" relative="1" as="geometry">
            <mxPoint x="251.57" y="1170" as="sourcePoint" />
            <mxPoint x="301.57" y="1170" as="targetPoint" />
          </mxGeometry>
        </mxCell>
        <mxCell id="OooZ02oLBbBNjy36J86k-143" value="" style="triangle;whiteSpace=wrap;html=1;strokeColor=#000000;fillColor=#ffffff;" vertex="1" parent="1">
          <mxGeometry x="301.57" y="1150" width="50" height="50" as="geometry" />
        </mxCell>
        <mxCell id="OooZ02oLBbBNjy36J86k-144" value="cnt" style="text;html=1;strokeColor=none;fillColor=none;align=center;verticalAlign=middle;whiteSpace=wrap;rounded=0;" vertex="1" parent="1">
          <mxGeometry x="210" y="1070" width="40" height="20" as="geometry" />
        </mxCell>
        <mxCell id="OooZ02oLBbBNjy36J86k-145" value="" style="endArrow=classic;html=1;" edge="1" parent="1">
          <mxGeometry width="50" height="50" relative="1" as="geometry">
            <mxPoint x="249.99999999999994" y="1080" as="sourcePoint" />
            <mxPoint x="299.99999999999994" y="1080" as="targetPoint" />
          </mxGeometry>
        </mxCell>
        <mxCell id="OooZ02oLBbBNjy36J86k-146" value="&lt;font style=&quot;font-size: 23px&quot;&gt;Circuit to be designed&lt;/font&gt;" style="text;html=1;strokeColor=none;fillColor=none;align=center;verticalAlign=middle;whiteSpace=wrap;rounded=0;" vertex="1" parent="1">
          <mxGeometry x="364" y="1070" width="276" height="120" as="geometry" />
        </mxCell>
        <mxCell id="OooZ02oLBbBNjy36J86k-147" value="" style="endArrow=classic;html=1;exitX=0.038;exitY=0.997;exitDx=0;exitDy=0;exitPerimeter=0;" edge="1" parent="1">
          <mxGeometry width="50" height="50" relative="1" as="geometry">
            <mxPoint x="407.6100000000001" y="1210" as="sourcePoint" />
            <mxPoint x="407.6100000000001" y="1251" as="targetPoint" />
          </mxGeometry>
        </mxCell>
        <mxCell id="OooZ02oLBbBNjy36J86k-148" value="" style="endArrow=classic;html=1;exitX=0.038;exitY=0.997;exitDx=0;exitDy=0;exitPerimeter=0;" edge="1" parent="1">
          <mxGeometry width="50" height="50" relative="1" as="geometry">
            <mxPoint x="467.6100000000001" y="1210" as="sourcePoint" />
            <mxPoint x="467.6100000000001" y="1251" as="targetPoint" />
          </mxGeometry>
        </mxCell>
        <mxCell id="OooZ02oLBbBNjy36J86k-149" value="" style="endArrow=classic;html=1;exitX=0.038;exitY=0.997;exitDx=0;exitDy=0;exitPerimeter=0;" edge="1" parent="1">
          <mxGeometry width="50" height="50" relative="1" as="geometry">
            <mxPoint x="507.6100000000001" y="1210" as="sourcePoint" />
            <mxPoint x="507.6100000000001" y="1251" as="targetPoint" />
          </mxGeometry>
        </mxCell>
        <mxCell id="OooZ02oLBbBNjy36J86k-150" value="" style="endArrow=classic;html=1;exitX=0.038;exitY=0.997;exitDx=0;exitDy=0;exitPerimeter=0;" edge="1" parent="1">
          <mxGeometry width="50" height="50" relative="1" as="geometry">
            <mxPoint x="547.6100000000001" y="1210" as="sourcePoint" />
            <mxPoint x="547.6100000000001" y="1251" as="targetPoint" />
          </mxGeometry>
        </mxCell>
        <mxCell id="OooZ02oLBbBNjy36J86k-151" value="" style="endArrow=classic;html=1;exitX=0.038;exitY=0.997;exitDx=0;exitDy=0;exitPerimeter=0;" edge="1" parent="1">
          <mxGeometry width="50" height="50" relative="1" as="geometry">
            <mxPoint x="587.6100000000001" y="1210" as="sourcePoint" />
            <mxPoint x="587.6100000000001" y="1251" as="targetPoint" />
          </mxGeometry>
        </mxCell>
        <mxCell id="OooZ02oLBbBNjy36J86k-152" value="tc" style="text;html=1;strokeColor=none;fillColor=none;align=center;verticalAlign=middle;whiteSpace=wrap;rounded=0;" vertex="1" parent="1">
          <mxGeometry x="390" y="1250" width="40" height="20" as="geometry" />
        </mxCell>
        <mxCell id="OooZ02oLBbBNjy36J86k-153" value="c3" style="text;html=1;strokeColor=none;fillColor=none;align=center;verticalAlign=middle;whiteSpace=wrap;rounded=0;" vertex="1" parent="1">
          <mxGeometry x="450" y="1250" width="40" height="20" as="geometry" />
        </mxCell>
        <mxCell id="OooZ02oLBbBNjy36J86k-154" value="c2" style="text;html=1;strokeColor=none;fillColor=none;align=center;verticalAlign=middle;whiteSpace=wrap;rounded=0;" vertex="1" parent="1">
          <mxGeometry x="490" y="1250" width="40" height="20" as="geometry" />
        </mxCell>
        <mxCell id="OooZ02oLBbBNjy36J86k-155" value="c1" style="text;html=1;strokeColor=none;fillColor=none;align=center;verticalAlign=middle;whiteSpace=wrap;rounded=0;" vertex="1" parent="1">
          <mxGeometry x="530" y="1250" width="40" height="20" as="geometry" />
        </mxCell>
        <mxCell id="OooZ02oLBbBNjy36J86k-156" value="c0" style="text;html=1;strokeColor=none;fillColor=none;align=center;verticalAlign=middle;whiteSpace=wrap;rounded=0;" vertex="1" parent="1">
          <mxGeometry x="570" y="1250" width="40" height="20" as="geometry" />
        </mxCell>
      </root>
    </mxGraphModel>
  </diagram>
</mxfile>
